<?xml version="1.0" encoding="UTF-8"?>
<svg xmlns="http://www.w3.org/2000/svg" version="1.1" viewBox="0 0 189 170">
  <defs>
    <style>
      .cls-1 {
        fill: #f7b3d1;
      }

      .cls-2 {
        stroke: #fedd60;
      }

      .cls-2, .cls-3, .cls-4, .cls-5 {
        fill: none;
        stroke-miterlimit: 10;
      }

      .cls-6 {
        fill: #fee9a6;
      }

      .cls-3 {
        stroke: #d677b0;
      }

      .cls-4 {
        stroke: #3f97d3;
      }

      .cls-7 {
        fill: #a6c1e5;
      }

      .cls-5 {
        stroke: #f9ed32;
      }
    </style>
  </defs>
  <!-- Generator: Adobe Illustrator 28.6.0, SVG Export Plug-In . SVG Version: 1.2.0 Build 709)  -->
  <g>
    <g id="Layer_1">
      <g>
        <path class="cls-1" d="M30.66,72.48c-1.58-1.44-.95-4.3.39-8.9,3.3-11.34,7.06-20.05,15.17-33.58,2.45-4.1,4.13-6.67,6.41-6.65,2.42.01,4.12,2.92,7.57,9.64,6.13,11.92,9.6,19.94,12.6,31.34,1.44,5.47,1.76,7.88.39,8.96-.84.66-2.97,1.35-14.18-4.85-10.78-5.96-12.17-8.45-26.59-18.66-6.46-4.57-9.75-6.59-9.26-8.77.21-.95,1.27-2.74,11.23-4.29,8.46-1.31,16.17-1.56,34.27-.19,9.43.71,13.25,1.23,14.18,3.54.79,1.97-.71,4.52-3.74,7.65-12.73,13.12-28.45,19.82-36.04,22.76-6.61,2.56-10.55,3.69-12.41,2Z"/>
        <path class="cls-3" d="M30.66,72.48c-.79-.73-.89-1.75-.91-2.07.07-.84.13-1.69.2-2.53,1.72-5.4,3.44-10.8,5.15-16.2-.59-.43-1.52-1.1-2.68-1.91-1.96-1.37-3.84-2.86-5.84-4.17-1.22-.8-2.36-1.49-3.06-2.91-.21-.44-.5-1.03-.36-1.69.27-1.32,2.02-2.02,3.01-2.38,6.25-2.21,16.93-2.85,16.93-2.85,0,0-.27,0-.27,0,1.07-1.79,1.9-3.26,2.45-4.25,0,0,1.47-2.64,3.99-6.17.36-.5.91-1.26,1.93-1.67.34-.14,1.26-.51,2.36-.18.74.22,1.18.7,1.76,1.3.65.67,1.02,1.29,1.13,1.46.76,1.27,2.74,4.88,5.29,9.77,3.45.09,7.17.34,11.14.82,1.32.16,3.24.36,7.05,1.09.33.06,1.03.2,1.7.74,1.15.9,1.37,2.27,1.4,2.47.05.31.13,1.39-1.7,3.96-.27.37-1.02,1.41-3.38,3.74-1.75,1.72-2.67,2.53-3.16,2.96-1.17,1.04-2.72,2.34-4.6,3.79.26.77.58,1.74.93,2.85.11.34.57,1.84,1.23,4.2,1.16,4.16.59,2.63,1.38,5.6,0,0,.24.88.32,2.53.02.47.03,1-.22,1.57-.09.21-.26.6-.65.9-.56.44-1.23.42-1.86.39-.28-.01-.77-.05-2.01-.43-.48-.15-1.19-.38-2.29-.83-1.02-.42-1.77-.77-2.45-1.09-.47-.22-1.28-.61-2.6-1.3-1.41-.73-2.41-1.28-2.98-1.59-1.18-.65-2.9-1.57-5.13-2.7-2.08,1.04-3.96,1.9-5.56,2.59-1.95.85-3.42,1.43-4.62,1.91-1.28.51-2.7,1.01-5.54,2.02,0,0-1.77.63-4.32,1-.36.05-1.11.15-1.98-.12-.3-.09-.78-.25-1.21-.65Z"/>
      </g>
      <path class="cls-1" d="M36.25,100.6"/>
      <path class="cls-5" d="M54.92,104.69"/>
      <g>
        <path class="cls-6" d="M58.68,107.29c-1.78-1.47-1.07-4.39.44-9.1,3.72-11.59,7.95-20.5,17.09-34.33,2.77-4.19,4.65-6.82,7.22-6.8,2.73.01,4.64,2.98,8.53,9.85,6.91,12.19,10.82,20.38,14.2,32.04,1.62,5.6,1.98,8.05.44,9.15-.94.68-3.34,1.38-15.98-4.96-12.15-6.09-13.71-8.64-29.96-19.07-7.28-4.68-10.98-6.74-10.43-8.96.24-.97,1.43-2.81,12.65-4.39,9.53-1.34,18.22-1.59,38.62-.19,10.62.73,14.93,1.26,15.98,3.62.89,2.01-.8,4.62-4.22,7.82-14.35,13.41-32.06,20.27-40.62,23.27-7.45,2.61-11.89,3.77-13.98,2.05Z"/>
        <path class="cls-2" d="M58.23,106.8c.24.28.68.71,1.34,1,.39.17.82.27,1.58.3,1.46.05,2.6-.21,2.71-.24,4.22-1.02,5.5-1.49,5.5-1.49,7.71-2.83,7.32-2.52,10.93-4.01,2.08-.86,3.76-1.6,4.88-2.11.91.51,2.1,1.16,3.51,1.9,2.35,1.23,4.2,2.11,5.1,2.53,2.14,1,3.54,1.59,4.07,1.81.31.13,1.53.63,3.16,1.19.93.32,1.76.57,2.84.74,1.6.25,2.12.04,2.36-.09.76-.39,1.11-1.11,1.24-1.42.25-.63.21-1.19.11-1.94-.3-2.25-.64-3.31-.64-3.31-.94-2.93-.13-1-1.58-5.49-.52-1.6-1.21-3.69-2.09-6.13.67-.46,1.51-1.06,2.47-1.78,1.83-1.36,3.24-2.51,4.08-3.22.57-.48,1.88-1.58,3.48-3.07.59-.56,1.53-1.45,2.58-2.72.74-.89,1.08-1.43,1.36-2.05.33-.74.7-1.61.42-2.61-.19-.68-.6-1.13-.73-1.27-.11-.12-.46-.48-1.42-.9-.72-.31-1.33-.47-2.02-.62-1.46-.31-2.59-.45-2.71-.46-2.63-.32-4.12-.43-4.12-.43-3.16-.24-4.73-.36-6.58-.48-1.64-.11-3.79-.24-6.33-.39-.72-1.3-1.33-2.37-1.76-3.14-.71-1.26-1.49-2.62-2.49-4.26-.42-.69-.92-1.5-1.66-2.51-.96-1.31-1.41-1.7-1.66-1.9-.59-.47-1.33-1.06-2.42-1.16-1.1-.1-1.95.36-2.45.64-.25.14-.95.55-2.39,2.31-.32.4-.83,1.04-2.28,3.21-.67,1.01-1.22,1.84-1.71,2.6-.63.97-1.48,2.31-2.5,3.94-1.18.07-2.85.18-4.85.38-3.3.33-5.56.69-7.74,1.05-.7.11-2.45.54-5.95,1.4,0,0-.93.23-2.24.96-.58.33-.91.58-1.14,1-.32.58-.27,1.15-.26,1.28.07.68.47,1.18,1.11,1.8,1.24,1.2,2.39,1.92,2.5,1.99.97.61-3.19-1.97,4.24,2.78,1.75,1.12,2.39,1.52,3.67,2.35.83.54,1.51.98,1.96,1.27-.13.3-.31.71-.52,1.19-.24.57-.77,1.82-1.4,3.45-.62,1.59-1.05,2.8-1.38,3.75-.81,2.29-.46,1.47-1.88,5.75,0,0-.38,1.15-.75,3.08-.13.71-.22,1.31-.09,2.05.12.67.37,1.18.56,1.52Z"/>
      </g>
      <g>
        <path class="cls-7" d="M95.14,78.39c-1.78-1.47-1.07-4.39.44-9.1,3.72-11.59,7.95-20.5,17.09-34.33,2.77-4.19,4.65-6.82,7.22-6.8,2.73.01,4.64,2.98,8.53,9.85,6.91,12.19,10.82,20.38,14.2,32.04,1.62,5.6,1.98,8.05.44,9.15-.94.68-3.34,1.38-15.98-4.96-12.15-6.09-13.71-8.64-29.96-19.07-7.28-4.68-10.98-6.74-10.43-8.96.24-.97,1.43-2.81,12.65-4.39,9.53-1.34,18.22-1.59,38.62-.19,10.62.73,14.93,1.26,15.98,3.62.89,2.01-.8,4.62-4.22,7.82-14.35,13.41-32.06,20.27-40.62,23.27-7.45,2.61-11.89,3.77-13.98,2.05Z"/>
        <path class="cls-4" d="M108.88,40.88c.6-.97,1.15-1.83,1.62-2.58.25-.39.92-1.44,1.84-2.84.76-1.15,1.14-1.74,1.65-2.46,1.19-1.71,1.73-2.32,2.02-2.64,1.07-1.17,1.65-1.5,1.87-1.62.41-.22,1.1-.59,2.02-.58,1.26,0,2.16.73,2.7,1.16.47.37.75.73,1.32,1.43.34.43.85,1.09,1.88,2.75.57.92.96,1.59,1.57,2.64.55.95.97,1.69,1.55,2.72.53.94.97,1.73,1.28,2.3,1.16.06,2.33.13,3.5.21,1.1.07,3.66.23,6.97.47.92.07,2.27.17,4.01.34.83.08,1.72.17,2.85.33,1.87.26,2.58.45,2.8.51,1.11.31,1.71.49,2.29.84.74.45,1.01.83,1.1.96.43.64.47,1.29.49,1.52.03.62-.13,1.07-.31,1.55-.32.84-.72,1.39-1.25,2.1-.55.74-1.04,1.25-1.56,1.8-.47.49-.82.83-1.33,1.3-1.06,1-1.91,1.73-2.52,2.26-.43.37-1.17,1-2.12,1.77-.37.3-1.04.83-1.89,1.49-.36.27-1.13.86-2.14,1.59-.53.39-1,.71-1.36.96.25.66.56,1.52.91,2.52.14.4.6,1.73,1.16,3.51.12.38.46,1.46.86,2.87.36,1.26.56,2.01.66,2.37.15.57.35,1.39.55,2.42.09.46.16.89.19,1.44.04.61.06.98-.06,1.44-.08.32-.21.84-.66,1.27-.46.44-1.01.54-1.39.6-.38.06-.77.07-1.67-.1-1.02-.18-1.86-.43-2.62-.68-.33-.11-1.02-.34-2.07-.74-1.42-.55-2.49-1.02-3.45-1.45-1.08-.49-1.89-.87-2.6-1.21-.27-.13-1.4-.67-2.9-1.43-.58-.3-1.41-.72-2.5-1.29-.97-.52-1.81-.98-2.49-1.36-.71.33-1.65.74-2.74,1.21-.62.27-2.4,1.02-4.76,1.94-2.2.85-3.87,1.44-5,1.84-.09.03-2.29.8-5.19,1.71,0,0-1.57.49-3.64.91-.36.07-1.03.2-1.9.23-.78.03-1.43.05-2.18-.23-.32-.12-.83-.3-1.29-.79-.09-.09-.31-.34-.5-.72-.25-.5-.28-.93-.32-1.36-.05-.69.03-1.19.14-1.86.12-.74.26-1.28.45-1.98.15-.56.28-1.01.46-1.6.15-.51.28-.89.43-1.37.09-.27.26-.82.5-1.52.38-1.14.68-2,.75-2.21.3-.86.54-1.51.62-1.72.33-.91.6-1.61.72-1.9.32-.82.57-1.45.68-1.72.28-.7.53-1.29.71-1.72.22-.52.42-.98.59-1.37-.32-.21-.75-.49-1.26-.82-.29-.19-1.1-.71-2.22-1.43-.5-.32-.98-.62-1.93-1.23-.61-.39-.91-.58-1.39-.89-.55-.35-.87-.56-1.29-.83-.66-.43-1.13-.74-1.74-1.17-.9-.63-1.39-1.02-1.58-1.17-.56-.45-.84-.71-1.08-.97-.39-.41-.6-.65-.77-1.03-.1-.23-.33-.76-.19-1.37.14-.58.54-.93.95-1.26.46-.37.91-.61,1.85-.95,1.15-.43,2.08-.68,2.43-.77,1.23-.32,2.17-.51,2.97-.67,1.26-.25,2.22-.4,3.16-.54,1.37-.21,2.41-.35,3.06-.43,1.65-.21,2.9-.33,3.26-.37,1.13-.11,2.05-.18,2.65-.23.71-.05,1.34-.09,1.84-.12Z"/>
      </g>
    </g>
  </g>
</svg>